<svg width="32" height="32" viewBox="0 0 32 32" fill="none" xmlns="http://www.w3.org/2000/svg">
<rect x="0.5" y="0.5" width="31" height="31" rx="15.5" fill="white"/>
<path d="M22.4947 22.76C22.4947 22.888 22.4307 22.968 22.3027 23C22.1907 23.016 21.8867 23.024 21.3907 23.024C21.2627 23.024 20.9027 23.016 20.3107 23C19.1267 22.968 18.3107 22.952 17.8627 22.952C17.3347 22.952 16.8707 22.96 16.4707 22.976C15.6707 23.008 15.1267 23.024 14.8387 23.024C14.4067 23.024 14.1907 22.944 14.1907 22.784C14.1907 22.624 14.6467 22.536 15.5587 22.52C15.7827 22.52 15.9507 22.504 16.0627 22.472C16.3187 22.44 16.4467 22.344 16.4467 22.184C16.4467 22.104 16.3507 21.768 16.1587 21.176L15.6547 19.616C15.5587 19.264 15.3507 18.616 15.0307 17.672H14.5987L12.7267 17.648C12.0547 17.632 11.3427 17.64 10.5907 17.672C10.4467 17.992 10.1747 18.712 9.77469 19.832L9.24669 21.392C9.16669 21.632 9.12669 21.824 9.12669 21.968C9.12669 22.24 9.30269 22.416 9.65469 22.496C9.73469 22.512 10.1267 22.544 10.8307 22.592C11.0547 22.608 11.1667 22.68 11.1667 22.808C11.1667 22.952 11.0227 23.024 10.7347 23.024L6.77469 23C6.67869 23.016 6.57469 23.024 6.46269 23.024C6.23869 23.024 6.12669 22.944 6.12669 22.784C6.12669 22.688 6.37469 22.624 6.87069 22.592C7.51069 22.56 7.91869 22.44 8.09469 22.232C8.27069 22.024 8.55869 21.352 8.95869 20.216C9.26269 19.416 9.70269 18.232 10.2787 16.664L13.1827 8.672C13.3267 8.32 13.5267 7.768 13.7827 7.016C13.9587 6.472 14.0947 6.2 14.1907 6.2C14.2867 6.2 14.4627 6.568 14.7187 7.304C15.0387 8.248 16.4467 11.976 18.9427 18.488C19.2627 19.32 19.5827 20.168 19.9027 21.032C20.1747 21.768 20.4467 22.216 20.7187 22.376C20.9267 22.504 21.4227 22.56 22.2067 22.544C22.3987 22.544 22.4947 22.616 22.4947 22.76ZM14.8627 17.144C14.8467 17.096 14.7907 16.944 14.6947 16.688C14.0547 14.832 13.5907 13.528 13.3027 12.776C13.2227 12.568 13.1107 12.264 12.9667 11.864L12.8227 11.432C12.5347 12.12 12.1827 13.072 11.7667 14.288C11.3027 15.648 10.9667 16.6 10.7587 17.144C10.9027 17.144 11.0787 17.136 11.2867 17.12C11.4787 17.12 11.6547 17.12 11.8147 17.12H13.1587C13.5267 17.12 14.0947 17.128 14.8627 17.144ZM27.4083 21.512C27.4083 22.008 27.2483 22.416 26.9283 22.736C26.6083 23.056 26.2003 23.216 25.7043 23.216C25.2083 23.216 24.7923 23.056 24.4563 22.736C24.1203 22.4 23.9523 21.992 23.9523 21.512C23.9523 21.016 24.1203 20.6 24.4563 20.264C24.7923 19.928 25.2083 19.76 25.7043 19.76C26.1683 19.76 26.5683 19.928 26.9043 20.264C27.2403 20.6 27.4083 21.016 27.4083 21.512Z" fill="black"/>
<rect x="0.5" y="0.5" width="31" height="31" rx="15.5" stroke="black"/>
</svg>
